<svg
        style="position: absolute; top: 0; right:0;left:0;bottom:0"
        xmlns:rdf="http://www.w3.org/1999/02/22-rdf-syntax-ns#"
        xmlns:svg="http://www.w3.org/2000/svg"
        xmlns="http://www.w3.org/2000/svg"
        viewBox="5 63 196 37">
        <text>Testing</text>
        <g>
          <path
            style="fill:#000000;stroke-width:0.223773"
            d="M 105.14502,100.63196 9.4539001,100.46712 7.2135128,97.999854 4.9731255,95.532573 V 79.290917 63.049261 H 100.5902 196.20727 l 2.31443,2.512848 c 1.27294,1.382059 2.36465,2.680137 2.42603,2.884632 0.14739,0.491076 0.14967,32.116409 0.002,32.248179 -0.0626,0.0561 -43.17488,0.0277 -95.80499,-0.0629 z m 95.31139,-1.975834 c 0,-0.514987 -0.45958,-1.156843 -2.12445,-2.967055 -1.16844,-1.270454 -2.15952,-2.30991 -2.20241,-2.30991 -0.0429,0 -0.078,0.262022 -0.078,0.582271 0,0.418646 0.6082,1.247042 2.16444,2.948066 1.19045,1.301193 2.18153,2.374354 2.20242,2.384783 0.0209,0.01 0.038,-0.276725 0.038,-0.638155 z m 0,-3.221788 v -1.571216 l -2.20242,-2.3834 -2.20241,-2.383413 v 1.569845 1.569832 l 2.16444,2.365807 c 1.19045,1.301193 2.18153,2.374342 2.20242,2.384783 0.0209,0.01 0.038,-0.688058 0.038,-1.552238 z m -5.00828,-16.231115 0.0856,-15.494612 H 100.51236 L 6.2803865,64.405472 5.6831791,79.217057 5.5835255,94.697848 H 100.51236 l 94.82162,-0.02854 z m 5.00828,11.945373 V 89.57738 l -2.20242,-2.383412 -2.20241,-2.383401 v 1.644606 1.644605 l 2.0885,2.292753 c 1.14867,1.261009 2.13975,2.300516 2.20241,2.31001 0.0627,0.01 0.11392,-0.689777 0.11392,-1.553945 z m 0,-4.195855 v -1.481329 l -2.12445,-2.30991 c -1.16844,-1.270454 -2.15952,-2.309911 -2.20241,-2.309911 -0.0429,0 -0.078,0.666552 -0.078,1.481216 v 1.481229 l 2.0885,2.29274 c 1.14867,1.261022 2.13975,2.300516 2.20241,2.310023 0.0627,0.01 0.11392,-0.649332 0.11392,-1.464058 z m 0,-4.120908 V 81.18567 l -2.12445,-2.30991 c -1.16844,-1.270454 -2.15952,-2.309911 -2.20241,-2.309911 -0.0429,0 -0.078,0.707072 -0.078,1.571278 v 1.57129 l 2.16444,2.365806 c 1.19045,1.301193 2.18153,2.374354 2.20242,2.384783 0.0209,0.01 0.038,-0.721787 0.038,-1.627173 z m 0,-4.210807 v -1.571215 l -2.20242,-2.383401 -2.20241,-2.383412 v 1.569844 1.569833 l 2.16444,2.365806 c 1.19045,1.301193 2.18153,2.374342 2.20242,2.384784 0.0209,0.01 0.038,-0.688071 0.038,-1.552239 z m 0,-4.285742 v -1.571215 l -2.20242,-2.3834 -2.20241,-2.383413 v 1.644605 1.644605 l 2.0885,2.292753 c 1.14867,1.26101 2.13975,2.300516 2.20241,2.310011 0.0627,0.01 0.11392,-0.689778 0.11392,-1.553946 z m 0,-4.195855 v -1.481328 l -2.12445,-2.309911 c -1.16844,-1.270454 -2.15952,-2.309911 -2.20241,-2.309911 -0.0429,0 -0.078,0.666552 -0.078,1.481229 v 1.481216 l 2.0885,2.292741 c 1.14867,1.261009 2.13975,2.300528 2.20241,2.310023 0.0627,0.01 0.11392,-0.649332 0.11392,-1.464059 z"
            id="path847"
            sodipodi:nodetypes="ccccccccsscccssssscsccccccscsccccccccccscccccscsccssscscscscssscscsccccccscscscccccscsccssscscsc" />
          <path
            style="fill:#ff0000;stroke-width:0.36117"
            d="m 5.6831791,79.217057 0.011844,-15.173953 94.7804369,-0.281602 95.05827,-0.05289 -0.0856,15.494612 -0.11415,15.466083 -94.85852,0.01351 -94.8919346,0.01503 z"
            id="path869"
            sodipodi:nodetypes="ccccccccc" />
          <path
            style="fill:#ff0000;stroke-width:0.369324"
            d="m 198.07811,96.830139 c 0,0 -1.43646,-1.658617 -1.91036,-2.318734 -0.13961,-0.194478 -0.23292,-0.795431 -0.18964,-0.795431 0.0728,0 -0.0498,-0.518374 0.19911,-0.309177 0.95831,0.805448 3.43769,3.473958 4.20097,4.606723 0.25092,0.372382 0.1231,1.212445 0.0764,1.266424 -0.0938,0.108489 -2.3765,-2.449805 -2.3765,-2.449805 z"
            id="path871"
            sodipodi:nodetypes="csssssc" />
          <path
            style="fill:#ff0000;stroke-width:1.18727"
            d=""
            id="path873"
            transform="scale(0.26458333)" />
          <path
            style="fill:#ff0000;stroke-width:0.36117"
            d="m 197.98202,90.220445 c -0.91736,-0.979893 -1.93244,-2.106569 -1.93044,-2.120666 0,0 -0.0186,-1.047156 -0.0147,-1.513719 l 0.0147,-1.775492 2.40666,2.587047 c 0.87046,0.935707 1.97692,2.17713 1.97692,2.17713 0.0503,1.244765 0.0127,2.245203 -0.0355,3.215928 -0.82081,-0.751463 -1.53218,-1.624423 -2.41762,-2.570228 z"
            id="path875"
            sodipodi:nodetypes="scscsccs" />
          <path
            style="fill:#ff0000;stroke-width:0.36117"
            d="m 197.94291,85.908744 c -1.00638,-1.077259 -1.86593,-2.036 -1.86593,-2.036 -0.0513,-0.318286 -0.0339,-1.089051 -0.0275,-1.433961 l 0.0305,-1.657915 2.51825,2.656375 c 0.96227,1.015046 1.85814,2.03417 1.85814,2.03417 l 0.0638,1.357688 c 0,0 -0.0347,1.683494 -0.20357,1.601607 0,0 -1.21262,-1.279085 -2.37374,-2.521964 z"
            id="path877"
            sodipodi:nodetypes="ssscsccss" />
          <path
            style="fill:#ff0000;stroke-width:0.36117"
            d="m 197.974,81.852579 -1.92243,-2.144162 -0.0377,-1.990518 0.0782,-1.209708 2.49083,2.629836 1.87348,2.047643 0.0112,3.337215 z"
            id="path879"
            sodipodi:nodetypes="cccccccc" />
          <path
            style="fill:#ff0000;stroke-width:0.36117"
            d="m 198.00066,77.577125 c -1.08684,-1.169066 -1.98708,-1.819721 -1.98708,-1.819721 0,0 0.038,-2.740359 0.038,-3.474405 l 2.40666,2.611839 c 1.17198,1.271891 2.08332,1.931652 2.07562,2.254457 l -0.0733,3.073774 z"
            id="path881"
            sodipodi:nodetypes="sccsscs" />
          <path
            style="fill:#ff0000;stroke-width:0.36117"
            d="m 197.96724,73.371951 -1.91566,-2.085484 c 0,0 -0.0304,-1.102359 -0.0242,-1.549017 l 0.0242,-1.740194 2.56221,2.741437 c 0.94887,1.01524 1.83818,2.028325 1.83818,2.028325 0.13926,1.147466 0.12759,2.015794 -0.1061,3.187744 -1.53728,-1.640138 -2.37863,-2.582811 -2.37863,-2.582811 z"
            id="path883"
            sodipodi:nodetypes="ccscsccc" />
          <path
            style="fill:#ff0000;stroke-width:0.36117"
            d="m 197.99071,69.130559 c -1.01783,-1.113104 -1.93914,-2.129834 -1.93914,-2.129834 0,0 -0.0475,-1.126318 1.3e-4,-1.448325 l 0.0378,-1.54634 c 0.98063,0.849316 1.68517,1.763479 2.52775,2.645218 1.10304,1.154297 1.66556,1.525323 1.83914,2.006824 0.18245,0.978907 0.002,2.111363 -0.0627,2.977169 -0.12573,0.03688 -0.35318,-0.236754 -0.66012,-0.576828 -0.38193,-0.423175 -0.95957,-1.071249 -1.74289,-1.927884 z"
            id="path885"
            sodipodi:nodetypes="scscsccss" />
          <path
            style="fill:#ff0000;stroke-width:1.18727"
            d=""
            id="path887"
            transform="scale(0.26458333)" />
          <path
            style="fill:#ff0000;stroke-width:1.18727"
            d=""
            id="path889"
            transform="scale(0.26458333)" />
          <path
            style="fill:#ff0000;stroke-width:0.410574"
            d="m 198.15377,94.523524 c -0.89094,-1.007453 -1.99241,-1.920241 -2.06197,-2.271591 -0.0991,-0.500452 -0.0402,-1.123634 -0.0402,-1.67544 v -1.480184 l 2.42504,2.608594 c 1.03834,1.116926 1.97979,2.158219 1.97979,2.158219 0,0 0.0314,2.144926 0.005,3.034042 -0.0126,0.438864 -0.99756,-0.8913 -2.30847,-2.37364 z"
            id="path891"
            sodipodi:nodetypes="ssscscss" />
        </g>
      </svg>